<svg width="32" height="32" viewBox="0 0 32 32" fill="none" xmlns="http://www.w3.org/2000/svg">
    <path d="M16.0002 15.6665C16.6446 15.6665 17.1946 15.4387 17.6502 14.9832C18.1057 14.5276 18.3335 13.9776 18.3335 13.3332C18.3335 12.6887 18.1057 12.1387 17.6502 11.6832C17.1946 11.2276 16.6446 10.9998 16.0002 10.9998C15.3557 10.9998 14.8057 11.2276 14.3502 11.6832C13.8946 12.1387 13.6668 12.6887 13.6668 13.3332C13.6668 13.9776 13.8946 14.5276 14.3502 14.9832C14.8057 15.4387 15.3557 15.6665 16.0002 15.6665ZM16.0335 28.9332C15.8779 28.9332 15.7335 28.9109 15.6002 28.8665C15.4668 28.8221 15.3446 28.7554 15.2335 28.6665C11.9224 25.7554 9.44461 23.0554 7.80016 20.5665C6.15572 18.0776 5.3335 15.7554 5.3335 13.5998C5.3335 10.2665 6.40572 7.61095 8.55016 5.63317C10.6946 3.65539 13.1779 2.6665 16.0002 2.6665C18.8224 2.6665 21.3057 3.65539 23.4502 5.63317C25.5946 7.61095 26.6668 10.2665 26.6668 13.5998C26.6668 15.7554 25.8446 18.0776 24.2002 20.5665C22.5557 23.0554 20.0779 25.7554 16.7668 28.6665C16.6557 28.7554 16.5391 28.8221 16.4168 28.8665C16.2946 28.9109 16.1668 28.9332 16.0335 28.9332Z" fill="#DEA411"/>
</svg>
