<svg width="32" height="32" viewBox="0 0 32 32" fill="none" xmlns="http://www.w3.org/2000/svg">
    <path d="M4.6665 26.6668C4.13317 26.6668 3.6665 26.4668 3.2665 26.0668C2.8665 25.6668 2.6665 25.2002 2.6665 24.6668V7.3335C2.6665 6.80016 2.8665 6.3335 3.2665 5.9335C3.6665 5.5335 4.13317 5.3335 4.6665 5.3335H27.3332C27.8665 5.3335 28.3332 5.5335 28.7332 5.9335C29.1332 6.3335 29.3332 6.80016 29.3332 7.3335V24.6668C29.3332 25.2002 29.1332 25.6668 28.7332 26.0668C28.3332 26.4668 27.8665 26.6668 27.3332 26.6668H4.6665ZM15.9998 16.4002C16.1109 16.4002 16.2054 16.3835 16.2832 16.3502C16.3609 16.3168 16.4443 16.2779 16.5332 16.2335L26.9998 9.40016C27.1109 9.3335 27.1943 9.24461 27.2498 9.1335C27.3054 9.02238 27.3332 8.90016 27.3332 8.76683C27.3332 8.47794 27.2054 8.25016 26.9498 8.0835C26.6943 7.91683 26.4332 7.92238 26.1665 8.10016L15.9998 14.6002L5.8665 8.10016C5.59984 7.92238 5.33317 7.91127 5.0665 8.06683C4.79984 8.22239 4.6665 8.44461 4.6665 8.7335C4.6665 8.86683 4.69984 8.99461 4.7665 9.11683C4.83317 9.23905 4.91095 9.3335 4.99984 9.40016L15.4665 16.2335C15.5554 16.2779 15.6387 16.3168 15.7165 16.3502C15.7943 16.3835 15.8887 16.4002 15.9998 16.4002Z" fill="#DEA411"/>
</svg>