<svg width="24" height="25" viewBox="0 0 24 25" fill="none" xmlns="http://www.w3.org/2000/svg">
    <path d="M12.0001 15.575C11.9001 15.575 11.8085 15.5583 11.7251 15.525C11.6418 15.4917 11.5585 15.4333 11.4751 15.35L6.52515 10.4C6.39182 10.2667 6.32932 10.0875 6.33765 9.8625C6.34598 9.6375 6.41682 9.45833 6.55015 9.325C6.71682 9.15833 6.89598 9.0875 7.08765 9.1125C7.27932 9.1375 7.45015 9.21666 7.60015 9.35L12.0001 13.75L16.4001 9.35C16.5335 9.21666 16.7126 9.14166 16.9376 9.125C17.1627 9.10833 17.3418 9.18333 17.4752 9.35C17.6418 9.48333 17.7126 9.65833 17.6876 9.875C17.6627 10.0917 17.5835 10.275 17.4502 10.425L12.5251 15.35C12.4418 15.4333 12.3585 15.4917 12.2751 15.525C12.1918 15.5583 12.1001 15.575 12.0001 15.575Z" fill="white"/>
</svg>
