<svg width="40" height="40" viewBox="0 0 40 40" fill="none" xmlns="http://www.w3.org/2000/svg">
    <rect width="40" height="40" rx="20" fill="#DEA412"/>
    <path d="M16.85 25.45C16.7166 25.2834 16.6458 25.1 16.6375 24.9C16.6291 24.7 16.7 24.525 16.85 24.375L21.25 19.975L16.825 15.55C16.6916 15.4167 16.6291 15.2375 16.6375 15.0125C16.6458 14.7875 16.7166 14.6084 16.85 14.475C17.0166 14.3084 17.1958 14.2292 17.3875 14.2375C17.5791 14.2459 17.75 14.325 17.9 14.475L22.875 19.45C22.9583 19.5334 23.0166 19.6167 23.05 19.7C23.0833 19.7834 23.1 19.875 23.1 19.975C23.1 20.075 23.0833 20.1667 23.05 20.25C23.0166 20.3334 22.9583 20.4167 22.875 20.5L17.925 25.45C17.775 25.6 17.6 25.6709 17.4 25.6625C17.2 25.6542 17.0166 25.5834 16.85 25.45Z" fill="white"/>
</svg>
