<svg width="40" height="40" viewBox="0 0 40 40" fill="none" xmlns="http://www.w3.org/2000/svg">
    <rect width="40" height="40" rx="20" fill="#DEA412"/>
    <path d="M21.4748 25.45L16.5248 20.5C16.4415 20.4167 16.3831 20.3333 16.3498 20.25C16.3165 20.1667 16.2998 20.075 16.2998 19.975C16.2998 19.875 16.3165 19.7833 16.3498 19.7C16.3831 19.6167 16.4415 19.5333 16.5248 19.45L21.4998 14.475C21.6498 14.325 21.829 14.25 22.0373 14.25C22.2456 14.25 22.4248 14.325 22.5748 14.475C22.7248 14.625 22.7956 14.8083 22.7873 15.025C22.779 15.2417 22.6998 15.425 22.5498 15.575L18.1498 19.975L22.5748 24.4C22.7248 24.55 22.7998 24.725 22.7998 24.925C22.7998 25.125 22.7248 25.3 22.5748 25.45C22.4248 25.6 22.2415 25.675 22.0248 25.675C21.8081 25.675 21.6248 25.6 21.4748 25.45Z" fill="white"/>
</svg>
