<svg width="64" height="64" viewBox="0 0 64 64" fill="none" xmlns="http://www.w3.org/2000/svg">
    <path d="M32.0002 14.9333L24.3469 6.3104C23.7869 5.68853 22.989 5.33333 22.1528 5.33333C20.5218 5.33333 19.2002 6.65493 19.2002 8.28586C19.2002 8.2784 19.1949 8.4864 19.2237 8.71893C20.1421 16.5653 20.2669 18.1333 20.2669 20.2667C20.2669 23.3845 20.0664 27.8219 18.5602 30.0789L14.8877 35.1051L32.2466 52.464L54.6626 30.0448C55.8701 28.8395 56.5336 27.2363 56.5336 25.5317C56.5336 24.7371 56.3874 23.9584 56.0994 23.2181L49.9576 7.424C49.212 5.50613 47.4008 4.26666 45.3432 4.26666C44.0397 4.26666 42.7629 4.79466 41.8424 5.71626L32.0002 14.9333Z" fill="#DEA411"/>
    <path d="M28.4874 54.7126L12.4874 38.7126C12.2943 38.5195 12.0276 38.4 11.7332 38.4C11.4388 38.4 11.1722 38.5195 10.9791 38.7126L6.71244 42.9792C6.51937 43.1723 6.3999 43.439 6.3999 43.7334C6.3999 44.0278 6.51937 44.2944 6.71244 44.4875L22.7124 60.4875C22.9055 60.6806 23.1722 60.8 23.4666 60.8C23.761 60.8 24.0276 60.6806 24.2207 60.4875L28.4874 56.2208C28.6804 56.0278 28.7999 55.7611 28.7999 55.4667C28.7999 55.1723 28.6804 54.9056 28.4874 54.7126Z" fill="#DEA411"/>
</svg>
