<svg width="64" height="64" viewBox="0 0 64 64" fill="none" xmlns="http://www.w3.org/2000/svg">
    <path d="M13.8666 12.7872C13.632 12.7904 13.3941 12.7979 13.1605 12.7989C7.3269 12.8245 2.1333 17.2939 2.1333 23.4667C2.1333 29.3568 6.90877 34.1333 12.8 34.1333C13.152 34.1333 13.5114 34.1419 13.8666 34.1472V12.7872Z" fill="#DEA411"/>
    <path d="M55.9999 25.6C55.1156 25.6 54.3999 24.8832 54.3999 24C54.3999 23.1168 55.1156 22.4 55.9999 22.4H60.2666C61.1498 22.4 61.8666 23.1168 61.8666 24C61.8666 24.8832 61.1498 25.6 60.2666 25.6H55.9999Z" fill="#DEA411"/>
    <path d="M54.222 35.0261L58.4887 37.1595C58.7042 37.2672 58.9431 37.3333 59.2002 37.3333C60.0844 37.3333 60.8002 36.6165 60.8002 35.7333C60.8002 35.1061 60.4364 34.5696 59.9116 34.3072L55.645 32.1739C55.4295 32.0672 55.1906 32 54.9335 32C54.0492 32 53.3335 32.7168 53.3335 33.6C53.3335 34.2272 53.6972 34.7637 54.222 35.0261Z" fill="#DEA411"/>
    <path d="M59.9116 13.6928L55.645 15.8261C55.4295 15.9339 55.1906 16 54.9335 16C54.0492 16 53.3335 15.2832 53.3335 14.4C53.3335 13.7728 53.6972 13.2363 54.222 12.9739L58.4887 10.8405C58.7042 10.7339 58.9431 10.6667 59.2002 10.6667C60.0844 10.6667 60.8002 11.3835 60.8002 12.2667C60.8002 12.8939 60.4364 13.4304 59.9116 13.6928Z" fill="#DEA411"/>
    <path d="M34.1335 45.4443C34.1335 45.7334 34.0834 46.0182 33.9917 46.2912L31.4519 53.9115C31.1319 54.8704 30.3138 55.5776 29.3186 55.7536L13.8743 58.479C13.1618 58.6048 12.4717 58.8331 11.8242 59.1563L8.53353 60.8L3.2002 52.2667L10.5613 43.2694C12.0183 41.487 13.9853 40.1942 16.1986 39.5616L20.2669 38.4V42.6667H31.2578C32.8674 42.6667 34.1335 43.8251 34.1335 45.4443Z" fill="#DEA411"/>
    <path d="M22.4468 59.1318C22.6729 60.6763 23.9913 61.8667 25.5998 61.8667C27.3673 61.8667 28.7998 60.4341 28.7998 58.6667V58.0107L22.4468 59.1318Z" fill="#DEA411"/>
    <path d="M22.3999 36.9109V40.5333H28.7999V38.0629C26.7444 37.5712 24.6004 37.2021 22.3999 36.9109Z" fill="#DEA411"/>
    <path d="M47.6781 3.20001C47.1928 3.20001 46.7202 3.35255 46.3181 3.62348C37.1768 9.80161 26.5517 12.1643 17.0669 12.6837V34.2528C26.5506 34.7712 37.1746 37.1317 46.3149 43.3088C46.7192 43.5808 47.1949 43.7333 47.6824 43.7333C49.036 43.7333 50.1336 42.6357 50.1336 41.2821V5.65121C50.1336 4.29761 49.0328 3.20001 47.6781 3.20001ZM43.9469 12.6059C38.2178 15.4709 31.5032 17.1595 25.228 18.1248C25.1746 18.1312 25.1224 18.1333 25.0669 18.1333C24.1826 18.1333 23.4669 17.4165 23.4669 16.5333C23.4669 15.7237 24.0696 15.0624 24.8493 14.9557C31.2397 13.9541 37.1981 12.3797 42.4472 9.79735C42.6712 9.67468 42.9261 9.60001 43.2002 9.60001C44.0845 9.60001 44.8002 10.3168 44.8002 11.2C44.8002 11.8123 44.4525 12.3371 43.9469 12.6059Z" fill="#DEA411"/>
</svg>
