<svg width="64" height="64" viewBox="0 0 64 64" fill="none" xmlns="http://www.w3.org/2000/svg">
    <path d="M23.4668 38.4C23.4668 37.8101 23.7047 37.2768 24.0919 36.8917L29.8668 31.1168V21.3333C29.8668 20.1557 30.8215 19.2 32.0001 19.2C33.1777 19.2 34.1335 20.1557 34.1335 21.3333V32C34.1335 32.5899 33.8935 33.1232 33.5084 33.5083L27.1084 39.9083C26.7223 40.2944 26.1889 40.5333 25.6001 40.5333C24.4215 40.5333 23.4668 39.5776 23.4668 38.4Z" fill="#DEA411"/>
    <path d="M47.1605 54.4843L43.8709 49.8795C40.9333 51.5648 37.6373 52.6816 34.1333 53.1136V59.5435C38.9621 58.9888 43.4122 57.1936 47.1605 54.4843Z" fill="#DEA411"/>
    <path d="M53.0665 40.9717C51.3556 43.7397 49.1369 46.1579 46.5396 48.1077L49.65 52.4619C52.3732 49.9701 54.5918 46.9387 56.1502 43.5403L53.0665 40.9717Z" fill="#DEA411"/>
    <path d="M57.5999 30.9333C57.0697 30.9333 56.6292 31.3206 56.5481 31.8283C56.1737 34.0267 55.5103 36.1248 54.6143 38.096L57.3705 40.3925C58.21 37.7451 58.6665 34.9259 58.6665 32C58.6665 31.4101 58.1897 30.9333 57.5999 30.9333Z" fill="#DEA411"/>
    <path d="M59.6439 23.04L52.1773 5.97333C52.013 5.59573 51.6375 5.33333 51.2002 5.33333C50.8557 5.33333 50.5495 5.49653 50.3543 5.7504L47.3506 9.65546C42.7533 6.272 37.0797 4.26666 30.9335 4.26666C15.6173 4.26666 3.2002 16.6837 3.2002 32C3.2002 47.3163 15.6173 59.7333 30.9335 59.7333V53.3333C19.741 53.3333 10.6669 43.7824 10.6669 32C10.6669 20.8075 19.741 11.7333 30.9335 11.7333C35.3655 11.7333 39.4647 13.1563 42.8013 15.5701L39.6877 19.6171C39.549 19.7973 39.4669 20.0224 39.4669 20.2667C39.4669 20.7915 39.8466 21.2288 40.3469 21.3163L58.4802 24.5163C58.541 24.5269 58.6029 24.5333 58.6669 24.5333C59.2567 24.5333 59.7335 24.0565 59.7335 23.4667C59.7335 23.3141 59.7026 23.1712 59.6439 23.04Z" fill="#DEA411"/>
</svg>
