<svg width="64" height="64" viewBox="0 0 64 64" fill="none" xmlns="http://www.w3.org/2000/svg">
    <path d="M53.3332 16C40.5332 13.8667 37.3332 9.6 33.5455 5.152C33.1327 4.66666 32.6367 4.26666 31.9999 4.26666C31.3631 4.26666 30.8671 4.66666 30.4543 5.152C26.6665 9.6 23.4665 13.8667 10.6665 16C9.506 16.1941 8.5332 16.9557 8.5332 18.1333V36.2667C8.5332 49.0667 25.0943 57.2203 29.762 59.2725C30.4532 59.5765 31.2447 59.7333 31.9999 59.7333C32.7551 59.7333 33.5465 59.5765 34.2377 59.2725C38.9055 57.2203 55.4665 49.0667 55.4665 36.2667V18.1333C55.4665 16.9557 54.4937 16.1941 53.3332 16ZM49.9199 41.4475C47.362 46.5291 41.602 50.6411 37.2937 53.0699C36.9897 53.2384 36.6399 53.3333 36.2665 53.3333C35.0889 53.3333 34.1332 52.3776 34.1332 51.2C34.1332 50.4181 34.5588 49.7408 35.1871 49.3696C39.5636 46.9173 44.178 43.4709 46.0671 39.6427C46.4052 38.9109 47.1412 38.4 47.9999 38.4C49.1775 38.4 50.1332 39.3557 50.1332 40.5333C50.1332 40.8619 50.0532 41.1701 49.9199 41.4475V41.4475Z" fill="#DEA411"/>
</svg>
